#define max_width 6
#define max_height 6
static unsigned char max_bits[] = {
0x3f, 0x3f, 0x3c, 0x3e, 0x37, 0x33 };
